<?xml version="1.0" encoding="UTF-8"?>
<!DOCTYPE svg PUBLIC "-//W3C//DTD SVG 1.1//EN" "http://www.w3.org/Graphics/SVG/1.1/DTD/svg11.dtd">
<!-- Creator: CorelDRAW 2021 (64 Bit) -->
<svg xmlns="http://www.w3.org/2000/svg" xml:space="preserve" width="83.2507mm" height="36.4076mm" version="1.1" style="shape-rendering:geometricPrecision; text-rendering:geometricPrecision; image-rendering:optimizeQuality; fill-rule:evenodd; clip-rule:evenodd"
viewBox="0 0 549.26 240.21"
 xmlns:xlink="http://www.w3.org/1999/xlink"
 xmlns:xodm="http://www.corel.com/coreldraw/odm/2003">
 <defs>
  <style type="text/css">
   <![CDATA[
    .str0 {stroke:#F58634;stroke-width:3.3;stroke-miterlimit:22.9256}
    .fil2 {fill:#F58634}
    .fil1 {fill:#F58634}
    .fil0 {fill:#2B435B}
   ]]>
  </style>
 </defs>
 <g id="Camada_x0020_1">
  <metadata id="CorelCorpID_0Corel-Layer"/>
  <path class="fil0" d="M341.57 134.11l41.93 0 0 3.1c0,7.24 0.83,13.52 2.53,18.89 8.51,17.41 21.46,26.09 38.87,26.09l0.48 0 1.05 -1 0 -37.87c0,-10.56 -4.63,-20.11 -13.83,-28.62 9.21,-8.77 13.83,-17.8 13.83,-27.09l0 -39.35 -1.05 -1.05c-5.76,0 -11.74,1.35 -17.89,4.1 -16.01,7.16 -23.99,20.81 -23.99,40.88l0 3.1 -41.93 0 0 -3.1c0,-7.46 -0.87,-13.79 -2.57,-18.89 -8.68,-17.41 -21.81,-26.09 -39.35,-26.09l-1.05 1.05 0 37.83c0,10.82 4.8,20.55 14.31,29.14 -9.51,7.24 -14.31,16.62 -14.31,28.1l0 37.87 1.05 1 0.48 0c5.98,0 11.43,-1.18 16.36,-3.58 16.71,-6.41 25.09,-20.55 25.09,-42.45l0 -2.05z"/>
  <path class="fil0" d="M141.61 122.85c-7.42,-18.41 -20.55,-27.62 -39.39,-27.62l-61.34 0 0 -9.68 62.87 0c5.63,0 10.91,-1.22 15.88,-3.58 15.66,-7.94 23.51,-18.85 23.51,-32.72l0 -1.57 -0.52 -0.48 -100.73 0.48 -1 0c-4.93,0 -8.68,0.52 -11.26,1.57 -19.76,6.98 -29.62,19.07 -29.62,36.3l0 9.2c0,6.37 1.18,11.82 3.58,16.36 8.68,14.96 20.59,22.47 35.77,22.47l62.87 0 0 9.2 -101.74 0 -0.48 0.52c0,4.14 0.66,8.25 2.01,12.26 8.29,17.06 20.72,25.56 37.34,25.56l64.39 0c5.63,0 10.91,-1.18 15.88,-3.58 15.66,-7.94 23.51,-18.85 23.51,-32.72l0 -11.78c0,-4.32 -0.52,-7.72 -1.53,-10.21z"/>
  <path class="fil0" d="M253.21 111.47c-1.96,34.94 -26.96,35.77 -55.46,34.86 -11.77,-0.43 -12.35,0.18 -12.54,-11.62 -0.18,-10.55 -0.34,-26.03 5.31,-35.23 10.71,-17.43 26.27,-16.77 44.3,-17.44 6.15,-0.23 16.06,-1.77 18.12,5.41 1.21,5.75 0.62,17.96 0.28,24.02zm-101.23 23.69l-0.52 104.53 0.52 0 0.52 0.52 1.53 0 7.68 -1c18.72,-7.33 28.1,-19.63 28.1,-36.82l0 -18.67 32.24 0c15.4,0 30.23,-6.63 44.46,-19.94 12.61,-13.79 18.93,-28.62 18.93,-44.46l0 -71.07 -1.05 -1.05 -67.97 0c-11.26,0 -22.86,3.75 -34.77,11.26 -19.76,14.92 -29.67,32.63 -29.67,53.18l0 23.52z"/>
  <path class="fil1" d="M549.08 179.89l0 -96.15c0,-3.75 -0.55,-7.98 -1.62,-12.78 -6.84,-17.01 -16.63,-25.52 -29.38,-25.52 -0.83,0 -1.2,0.31 -1.2,1l0 95.11c0,7.33 1.34,13.79 4.02,19.41 7.18,13.31 15.91,19.94 26.15,19.94l1.24 0 0.79 -1z"/>
  <path class="fil2" d="M516.7 26.32c2.78,8.69 7.93,13.03 15.47,13.03l3.65 0c8.97,-2.99 13.45,-7.61 13.45,-13.87l0 -2.01 -0.8 -4.9c-3.75,-6.78 -8.38,-10.18 -13.87,-10.18l-3.65 0c-9.52,2.5 -14.25,7.54 -14.25,15.09l0 2.85z"/>
  <path class="fil1 str0" d="M513.19 45.43l-104.87 0c-2.52,0 -5.02,0.62 -7.46,1.82 -10.99,7.11 -16.49,17.81 -16.49,32.15 0,0.89 0.21,1.35 0.61,1.35l104.23 0c3.16,0 6.19,-0.73 9.03,-2.24 10.38,-7.57 15.56,-17.81 15.56,-30.79l0 -1.35 -0.61 -0.93z"/>
  <path class="fil1" d="M466.88 211.68l0 -172.33c0,-4.14 -0.61,-8.25 -1.8,-12.26 -7.05,-18.06 -17.67,-27.09 -31.9,-27.09 -0.88,0 -1.34,0.35 -1.34,1l0 171.28c0,5.19 0.73,10.17 2.22,14.83 7.51,17.06 17.67,25.56 30.56,25.56l1.34 0 0.92 -1z"/>
 </g>
</svg>
