<?xml version="1.0" encoding="UTF-8"?>
<!DOCTYPE svg PUBLIC "-//W3C//DTD SVG 1.1//EN" "http://www.w3.org/Graphics/SVG/1.1/DTD/svg11.dtd">
<!-- Creator: CorelDRAW 2021 (64 Bit) -->
<svg xmlns="http://www.w3.org/2000/svg" xml:space="preserve" width="96.761mm" height="36.4991mm" version="1.1" style="shape-rendering:geometricPrecision; text-rendering:geometricPrecision; image-rendering:optimizeQuality; fill-rule:evenodd; clip-rule:evenodd"
viewBox="0 0 639.55 241.25"
 xmlns:xlink="http://www.w3.org/1999/xlink"
 xmlns:xodm="http://www.corel.com/coreldraw/odm/2003">
 <defs>
  <style type="text/css">
   <![CDATA[
    .fil1 {fill:#0096D8}
    .fil0 {fill:#2B435B}
    .fil2 {fill:#4EB8E6}
   ]]>
  </style>
 </defs>
 <g id="Camada_x0020_1">
  <metadata id="CorelCorpID_0Corel-Layer"/>
  <g id="_2297391056080">
   <path class="fil0" d="M342.19 134.95l42 0 0 3.1c0,7.25 0.83,13.55 2.54,18.93 8.52,17.44 21.5,26.14 38.94,26.14l0.48 0 1.05 -1 0 -37.94c0,-10.58 -4.63,-20.15 -13.86,-28.67 9.22,-8.78 13.86,-17.83 13.86,-27.14l0 -39.42 -1.05 -1.05c-5.77,0 -11.76,1.35 -17.92,4.11 -16.04,7.17 -24.04,20.85 -24.04,40.95l0 3.1 -42 0 0 -3.1c0,-7.47 -0.87,-13.81 -2.58,-18.92 -8.7,-17.44 -21.85,-26.14 -39.42,-26.14l-1.05 1.05 0 37.89c0,10.84 4.81,20.59 14.34,29.19 -9.53,7.25 -14.34,16.65 -14.34,28.15l0 37.94 1.05 1 0.48 0c5.99,0 11.45,-1.18 16.39,-3.58 16.74,-6.42 25.13,-20.58 25.13,-42.53l0 -2.05z"/>
   <path class="fil1" d="M449.85 49.69l0 95.28c0,7.34 1.7,13.81 5.11,19.45 9.13,13.33 20.23,19.97 33.26,19.97l1.57 0 1.01 -1 0 -96.33c0,-3.76 -0.7,-8 -2.05,-12.81 -8.7,-17.05 -21.15,-25.57 -37.37,-25.57 -1.05,0 -1.53,0.31 -1.53,1.01z"/>
   <path class="fil2" d="M505.86 107.97l-0.52 104.72 0.52 0 0.52 0.52 1.53 0 7.69 -1.01c18.75,-7.34 28.15,-19.67 28.15,-36.89l0 -18.71 32.3 0c15.43,0 30.29,-6.64 44.54,-19.97 12.63,-13.81 18.97,-28.67 18.97,-44.54l0 -71.2 -1.05 -1.05 -68.09 0c-11.28,0 -22.9,3.76 -34.83,11.28 -19.8,14.95 -29.72,32.69 -29.72,53.28l0 23.56zm45.85 11.19c-11.79,-0.43 -12.37,0.18 -12.57,-11.64 -0.18,-10.57 -0.34,-26.08 5.32,-35.29 10.72,-17.46 26.31,-16.8 44.38,-17.47 6.16,-0.23 16.09,-1.77 18.15,5.42 1.21,5.76 0.62,18 0.28,24.06 -1.97,35 -27.01,35.83 -55.56,34.92z"/>
   <path class="fil1" d="M496.36 38.94c11.28,-3.76 16.91,-9.57 16.91,-17.44l0 -2.53 -1.01 -6.16c-4.72,-8.52 -10.53,-12.81 -17.44,-12.81l-4.59 0c-11.98,3.15 -17.92,9.48 -17.92,18.97l0 3.58c3.5,10.93 9.97,16.39 19.45,16.39l4.59 0z"/>
   <path class="fil0" d="M141.87 123.68c-7.43,-18.44 -20.59,-27.67 -39.47,-27.67l-61.45 0 0 -9.7 62.98 0c5.64,0 10.93,-1.22 15.91,-3.58 15.69,-7.95 23.56,-18.88 23.56,-32.78l0 -1.57 -0.52 -0.48 -100.92 0.48 -1 0c-4.94,0 -8.7,0.52 -11.28,1.57 -19.8,6.99 -29.68,19.1 -29.68,36.36l0 9.22c0,6.38 1.18,11.84 3.58,16.39 8.7,14.99 20.63,22.51 35.84,22.51l62.98 0 0 9.22 -101.92 0 -0.48 0.53c0,4.15 0.66,8.26 2.01,12.28 8.3,17.09 20.76,25.61 37.41,25.61l64.51 0c5.64,0 10.93,-1.18 15.91,-3.58 15.69,-7.95 23.56,-18.88 23.56,-32.78l0 -11.8c0,-4.33 -0.52,-7.74 -1.53,-10.23z"/>
   <path class="fil0" d="M253.66 112.27c-1.97,35 -27.01,35.83 -55.56,34.92 -11.79,-0.43 -12.37,0.18 -12.57,-11.64 -0.18,-10.57 -0.34,-26.08 5.32,-35.29 10.72,-17.46 26.31,-16.8 44.38,-17.47 6.16,-0.23 16.09,-1.77 18.15,5.42 1.21,5.76 0.62,18 0.28,24.06zm-101.41 23.73l-0.52 104.72 0.52 0 0.52 0.52 1.53 0 7.69 -1.01c18.75,-7.34 28.15,-19.67 28.15,-36.89l0 -18.71 32.3 0c15.43,0 30.29,-6.64 44.54,-19.97 12.63,-13.81 18.97,-28.67 18.97,-44.54l0 -71.2 -1.05 -1.05 -68.09 0c-11.28,0 -22.9,3.76 -34.83,11.28 -19.8,14.95 -29.72,32.69 -29.72,53.28l0 23.56z"/>
  </g>
 </g>
</svg>
